<svg xmlns="http://www.w3.org/2000/svg" width="1080" height="1920" viewBox="0 0 1080 1920">
<defs>
  <linearGradient id="bg" x1="0" y1="0" x2="1" y2="1">
    <stop stop-color="#051511"/>
    <stop offset="0.55" stop-color="#0c2e26"/>
    <stop offset="1" stop-color="#020806"/>
  </linearGradient>
  <radialGradient id="glowA" cx="0.2" cy="0.1" r="0.8">
    <stop stop-color="#f6d06b" stop-opacity="0.18"/>
    <stop offset="1" stop-color="#f6d06b" stop-opacity="0"/>
  </radialGradient>
  <radialGradient id="glowB" cx="0.9" cy="0.2" r="0.9">
    <stop stop-color="#d79a2b" stop-opacity="0.12"/>
    <stop offset="1" stop-color="#d79a2b" stop-opacity="0"/>
  </radialGradient>
  <linearGradient id="accent" x1="0" y1="0" x2="1" y2="0">
    <stop stop-color="#f6d06b"/>
    <stop offset="1" stop-color="#d79a2b"/>
  </linearGradient>
  <linearGradient id="gold" x1="0" y1="0" x2="1" y2="0">
    <stop stop-color="#f6d06b"/>
    <stop offset="1" stop-color="#b98424"/>
  </linearGradient>
  <linearGradient id="glass" x1="0" y1="0" x2="0" y2="1">
    <stop stop-color="#10241f" stop-opacity="0.95"/>
    <stop offset="1" stop-color="#06110f" stop-opacity="0.97"/>
  </linearGradient>
  <linearGradient id="panelBefore" x1="0" y1="0" x2="1" y2="1">
    <stop stop-color="#16211f"/>
    <stop offset="1" stop-color="#0a1110"/>
  </linearGradient>
  <linearGradient id="panelAfter" x1="0" y1="0" x2="1" y2="1">
    <stop stop-color="#173028"/>
    <stop offset="1" stop-color="#0d1815"/>
  </linearGradient>
  <filter id="shadow" x="-20%" y="-20%" width="140%" height="140%">
    <feDropShadow dx="0" dy="10" stdDeviation="18" flood-color="#000000" flood-opacity="0.35"/>
  </filter>
</defs>
<rect width="1080" height="1920" fill="url(#bg)"/><rect width="1080" height="1920" fill="url(#glowA)"/><rect width="1080" height="1920" fill="url(#glowB)"/><line x1="0" y1="0" x2="0" y2="1920" stroke="#ffffff" stroke-opacity="0.03"/><line x1="108" y1="0" x2="108" y2="1920" stroke="#ffffff" stroke-opacity="0.03"/><line x1="216" y1="0" x2="216" y2="1920" stroke="#ffffff" stroke-opacity="0.03"/><line x1="324" y1="0" x2="324" y2="1920" stroke="#ffffff" stroke-opacity="0.03"/><line x1="432" y1="0" x2="432" y2="1920" stroke="#ffffff" stroke-opacity="0.03"/><line x1="540" y1="0" x2="540" y2="1920" stroke="#ffffff" stroke-opacity="0.03"/><line x1="648" y1="0" x2="648" y2="1920" stroke="#ffffff" stroke-opacity="0.03"/><line x1="756" y1="0" x2="756" y2="1920" stroke="#ffffff" stroke-opacity="0.03"/><line x1="864" y1="0" x2="864" y2="1920" stroke="#ffffff" stroke-opacity="0.03"/><line x1="972" y1="0" x2="972" y2="1920" stroke="#ffffff" stroke-opacity="0.03"/><line x1="1080" y1="0" x2="1080" y2="1920" stroke="#ffffff" stroke-opacity="0.03"/><line x1="0" y1="0" x2="1080" y2="0" stroke="#ffffff" stroke-opacity="0.02"/><line x1="0" y1="160" x2="1080" y2="160" stroke="#ffffff" stroke-opacity="0.02"/><line x1="0" y1="320" x2="1080" y2="320" stroke="#ffffff" stroke-opacity="0.02"/><line x1="0" y1="480" x2="1080" y2="480" stroke="#ffffff" stroke-opacity="0.02"/><line x1="0" y1="640" x2="1080" y2="640" stroke="#ffffff" stroke-opacity="0.02"/><line x1="0" y1="800" x2="1080" y2="800" stroke="#ffffff" stroke-opacity="0.02"/><line x1="0" y1="960" x2="1080" y2="960" stroke="#ffffff" stroke-opacity="0.02"/><line x1="0" y1="1120" x2="1080" y2="1120" stroke="#ffffff" stroke-opacity="0.02"/><line x1="0" y1="1280" x2="1080" y2="1280" stroke="#ffffff" stroke-opacity="0.02"/><line x1="0" y1="1440" x2="1080" y2="1440" stroke="#ffffff" stroke-opacity="0.02"/><line x1="0" y1="1600" x2="1080" y2="1600" stroke="#ffffff" stroke-opacity="0.02"/><line x1="0" y1="1760" x2="1080" y2="1760" stroke="#ffffff" stroke-opacity="0.02"/><line x1="0" y1="1920" x2="1080" y2="1920" stroke="#ffffff" stroke-opacity="0.02"/><rect x="60" y="185" width="220" height="46" rx="23" fill="#0c1e1a" stroke="#f6d06b" stroke-opacity="0.65"/><text x="170" y="216" text-anchor="middle" fill="#f6d06b" font-family="DejaVu Sans" font-size="22" font-weight="bold">سطح 7 • حرفه‌ای</text><rect x="790" y="185" width="230" height="46" rx="23" fill="#0c1e1a" stroke="#f6d06b" stroke-opacity="0.7"/><text x="905" y="216" text-anchor="middle" fill="#f6d06b" font-family="DejaVu Sans" font-size="22" font-weight="bold">6 Before / After</text><text x="540" y="280" text-anchor="middle" fill="white" font-family="DejaVu Sans" font-size="54" font-weight="bold"><tspan x="540" dy="0">30 | MASTER AI EDIT</tspan></text><text x="540" y="352.0" text-anchor="middle" fill="#d2e1dd" font-family="DejaVu Sans" font-size="26" font-weight="normal"><tspan x="540" dy="0">همه تکنیک‌ها را در یک ادیت نهایی جمع</tspan><tspan x="540" dy="35.1">کن.</tspan></text><rect x="322" y="429.1" width="436" height="40" rx="20" fill="#0d1d1a" stroke="#d79a2b" stroke-opacity="0.4"/><text x="540" y="455.1" text-anchor="middle" fill="#f6d06b" font-family="DejaVu Sans" font-size="20" font-weight="bold">Identity Lock • Prompt Match • Same Subject</text><rect x="55" y="400" width="290" height="220" rx="30" fill="#11231f" stroke="#f6d06b" stroke-opacity="0.35"/><text x="200.0" y="438" text-anchor="middle" fill="#f6d06b" font-family="DejaVu Sans" font-size="22" font-weight="bold">Original</text><rect x="395" y="400" width="290" height="220" rx="30" fill="#172520" stroke="#f6d06b" stroke-opacity="0.35"/><text x="540.0" y="438" text-anchor="middle" fill="#f6d06b" font-family="DejaVu Sans" font-size="22" font-weight="bold">AI Editing Process</text><rect x="735" y="400" width="290" height="220" rx="30" fill="#1a2923" stroke="#f6d06b" stroke-opacity="0.35"/><text x="880.0" y="438" text-anchor="middle" fill="#f6d06b" font-family="DejaVu Sans" font-size="22" font-weight="bold">Final Result</text><rect x="95" y="452" width="210" height="102" rx="16" fill="url(#panelBefore)"/><rect x="103" y="460" width="194" height="53.0" rx="12" fill="#dff7ff" opacity="0.08"/><rect x="105" y="521.4" width="190" height="18.4" rx="10" fill="#0a1413" opacity="0.65"/><g transform="translate(127,453) scale(1.55,0.85)"><g><path d="M 28 74 Q 50 64 72 74 L 80 118 L 20 118 Z" fill="#0b0f14"/><path d="M 40 74 L 50 86 L 60 74 L 56 108 L 44 108 Z" fill="#d8dde4"/><path d="M 50 83 L 54 92 L 50 108 L 46 92 Z" fill="#19335b"/><path d="M 24 86 Q 22 98 22 112" stroke="#0b0f14" stroke-width="9" fill="none" stroke-linecap="round"/><path d="M 76 86 Q 78 97 78 110" stroke="#0b0f14" stroke-width="9" fill="none" stroke-linecap="round"/><ellipse cx="50" cy="40" rx="15" ry="18" fill="#d4a087"/><path d="M 36 23 Q 50 5 64 23 L 60 34 Q 50 29 40 34 Z" fill="#26201f"/><path d="M 39 45 Q 50 68 61 45 Q 57 68 50 70 Q 43 68 39 45 Z" fill="#251e1c"/><path d="M 41 36 L 46 35 M 54 35 L 59 36" stroke="#1c1717" stroke-width="1.8" stroke-linecap="round"/><ellipse cx="44" cy="41" rx="2.3" ry="1.8" fill="#161414"/><ellipse cx="56" cy="41" rx="2.3" ry="1.8" fill="#161414"/><path d="M 43 56 Q 50 57 57 56" stroke="#6f4d41" stroke-width="1.6" fill="none" stroke-linecap="round"/><path d="M 50 42 Q 48 47 50 49" stroke="#8b6752" stroke-width="1.2" fill="none" stroke-linecap="round"/><path d="M 38 24 Q 40 29 41 33" stroke="#a4aaad" stroke-width="1.7" stroke-linecap="round" opacity="0.75"/><path d="M 44 24 Q 46 29 47 33" stroke="#a4aaad" stroke-width="1.7" stroke-linecap="round" opacity="0.75"/><path d="M 50 24 Q 52 29 53 33" stroke="#a4aaad" stroke-width="1.7" stroke-linecap="round" opacity="0.75"/></g></g><text x="200" y="594" text-anchor="middle" fill="#d8e6e1" font-family="DejaVu Sans" font-size="18" font-weight="bold"><tspan x="200" dy="0">پرتره مرجع</tspan></text><text x="540" y="505" text-anchor="middle" fill="#d8e6e1" font-family="DejaVu Sans" font-size="18" font-weight="normal"><tspan x="540" dy="0">سوژه → لباس → ژست</tspan><tspan x="540" dy="24.3">محیط → نور → رنگ → هویت</tspan></text><text x="540" y="568" text-anchor="middle" fill="#ffffff" font-family="DejaVu Sans" font-size="18" font-weight="bold"><tspan x="540" dy="0">ویرایش کنترل‌شده و</tspan><tspan x="540" dy="24.3">مرحله‌به‌مرحله</tspan></text><rect x="775" y="452" width="210" height="102" rx="16" fill="url(#panelAfter)"/><rect x="783" y="460" width="194" height="53.0" rx="12" fill="#dff7ff" opacity="0.14"/><rect x="785" y="521.4" width="190" height="18.4" rx="10" fill="#0a1413" opacity="0.65"/><g transform="translate(807,453) scale(1.55,0.85)"><g transform="translate(-3,0) scale(0.96,1)"><path d="M 28 74 Q 50 64 72 74 L 80 118 L 20 118 Z" fill="#161f30"/><path d="M 40 74 L 50 86 L 60 74 L 56 108 L 44 108 Z" fill="#d8dde5"/><path d="M 50 83 L 54 92 L 50 108 L 46 92 Z" fill="#10294e"/><path d="M 24 86 Q 22 98 22 112" stroke="#161f30" stroke-width="9" fill="none" stroke-linecap="round"/><path d="M 76 86 Q 78 97 78 110" stroke="#161f30" stroke-width="9" fill="none" stroke-linecap="round"/><ellipse cx="50" cy="40" rx="15" ry="18" fill="#d4a087"/><path d="M 36 23 Q 50 5 64 23 L 60 34 Q 50 29 40 34 Z" fill="#26201f"/><path d="M 39 45 Q 50 68 61 45 Q 57 68 50 70 Q 43 68 39 45 Z" fill="#251e1c"/><path d="M 41 36 L 46 35 M 54 35 L 59 36" stroke="#1c1717" stroke-width="1.8" stroke-linecap="round"/><ellipse cx="44" cy="41" rx="2.3" ry="1.8" fill="#161414"/><ellipse cx="56" cy="41" rx="2.3" ry="1.8" fill="#161414"/><path d="M 43 56 Q 50 57 57 56" stroke="#6f4d41" stroke-width="1.6" fill="none" stroke-linecap="round"/><path d="M 50 42 Q 48 47 50 49" stroke="#8b6752" stroke-width="1.2" fill="none" stroke-linecap="round"/><path d="M 38 24 Q 40 29 41 33" stroke="#a4aaad" stroke-width="1.7" stroke-linecap="round" opacity="0.75"/><path d="M 44 24 Q 46 29 47 33" stroke="#a4aaad" stroke-width="1.7" stroke-linecap="round" opacity="0.75"/><path d="M 50 24 Q 52 29 53 33" stroke="#a4aaad" stroke-width="1.7" stroke-linecap="round" opacity="0.75"/></g></g><text x="880" y="588" text-anchor="middle" fill="#ffffff" font-family="DejaVu Sans" font-size="17" font-weight="bold"><tspan x="880" dy="0">خروجی نهایی</tspan><tspan x="880" dy="23.0">لوکس، کنترل‌شده، قابل‌تکرار</tspan></text><path d="M 346 510 H 385" stroke="#d79a2b" stroke-width="4" stroke-linecap="round"/><path d="M 686 510 H 725" stroke="#d79a2b" stroke-width="4" stroke-linecap="round"/><g filter="url(#shadow)"><rect x="55" y="700" width="470" height="238" rx="28" fill="url(#glass)" stroke="#f6d06b" stroke-opacity="0.35"/></g><text x="75" y="734" text-anchor="start" fill="white" font-family="DejaVu Sans" font-size="18" font-weight="bold"><tspan x="75" dy="0">Professional</tspan></text><rect x="73" y="746" width="211.0" height="96" rx="18" fill="#0c1916"/><rect x="296.0" y="746" width="211.0" height="96" rx="18" fill="#0c1916"/><rect x="73" y="746" width="211.0" height="96" rx="16" fill="url(#panelBefore)"/><rect x="81" y="754" width="195.0" height="49.9" rx="12" fill="#dff7ff" opacity="0.08"/><rect x="83" y="811.3" width="191.0" height="17.3" rx="10" fill="#0a1413" opacity="0.65"/><g transform="translate(111.0,757.5) scale(1.350,0.608)"><g><path d="M 28 74 Q 50 64 72 74 L 80 118 L 20 118 Z" fill="#0b0f14"/><path d="M 40 74 L 50 86 L 60 74 L 56 108 L 44 108 Z" fill="#d8dde4"/><path d="M 50 83 L 54 92 L 50 108 L 46 92 Z" fill="#19335b"/><path d="M 24 86 Q 22 98 22 112" stroke="#0b0f14" stroke-width="9" fill="none" stroke-linecap="round"/><path d="M 76 86 Q 78 97 78 110" stroke="#0b0f14" stroke-width="9" fill="none" stroke-linecap="round"/><ellipse cx="50" cy="40" rx="15" ry="18" fill="#d4a087"/><path d="M 36 23 Q 50 5 64 23 L 60 34 Q 50 29 40 34 Z" fill="#26201f"/><path d="M 39 45 Q 50 68 61 45 Q 57 68 50 70 Q 43 68 39 45 Z" fill="#251e1c"/><path d="M 41 36 L 46 35 M 54 35 L 59 36" stroke="#1c1717" stroke-width="1.8" stroke-linecap="round"/><ellipse cx="44" cy="41" rx="2.3" ry="1.8" fill="#161414"/><ellipse cx="56" cy="41" rx="2.3" ry="1.8" fill="#161414"/><path d="M 43 56 Q 50 57 57 56" stroke="#6f4d41" stroke-width="1.6" fill="none" stroke-linecap="round"/><path d="M 50 42 Q 48 47 50 49" stroke="#8b6752" stroke-width="1.2" fill="none" stroke-linecap="round"/><path d="M 38 24 Q 40 29 41 33" stroke="#a4aaad" stroke-width="1.7" stroke-linecap="round" opacity="0.75"/><path d="M 44 24 Q 46 29 47 33" stroke="#a4aaad" stroke-width="1.7" stroke-linecap="round" opacity="0.75"/><path d="M 50 24 Q 52 29 53 33" stroke="#a4aaad" stroke-width="1.7" stroke-linecap="round" opacity="0.75"/></g></g><rect x="296.0" y="746" width="211.0" height="96" rx="16" fill="url(#panelAfter)"/><rect x="304.0" y="754" width="195.0" height="49.9" rx="12" fill="#dff7ff" opacity="0.14"/><rect x="306.0" y="811.3" width="191.0" height="17.3" rx="10" fill="#0a1413" opacity="0.65"/><g transform="translate(334.0,757.5) scale(1.350,0.608)"><g><path d="M 28 74 Q 50 64 72 74 L 80 118 L 20 118 Z" fill="#161f30"/><path d="M 40 74 L 50 86 L 60 74 L 56 108 L 44 108 Z" fill="#d8dde5"/><path d="M 50 83 L 54 92 L 50 108 L 46 92 Z" fill="#10294e"/><path d="M 24 86 Q 22 98 22 112" stroke="#161f30" stroke-width="9" fill="none" stroke-linecap="round"/><path d="M 76 86 Q 78 97 78 110" stroke="#161f30" stroke-width="9" fill="none" stroke-linecap="round"/><ellipse cx="50" cy="40" rx="15" ry="18" fill="#d4a087"/><path d="M 36 23 Q 50 5 64 23 L 60 34 Q 50 29 40 34 Z" fill="#26201f"/><path d="M 39 45 Q 50 68 61 45 Q 57 68 50 70 Q 43 68 39 45 Z" fill="#251e1c"/><path d="M 41 36 L 46 35 M 54 35 L 59 36" stroke="#1c1717" stroke-width="1.8" stroke-linecap="round"/><ellipse cx="44" cy="41" rx="2.3" ry="1.8" fill="#161414"/><ellipse cx="56" cy="41" rx="2.3" ry="1.8" fill="#161414"/><path d="M 43 56 Q 50 57 57 56" stroke="#6f4d41" stroke-width="1.6" fill="none" stroke-linecap="round"/><path d="M 50 42 Q 48 47 50 49" stroke="#8b6752" stroke-width="1.2" fill="none" stroke-linecap="round"/><path d="M 38 24 Q 40 29 41 33" stroke="#a4aaad" stroke-width="1.7" stroke-linecap="round" opacity="0.75"/><path d="M 44 24 Q 46 29 47 33" stroke="#a4aaad" stroke-width="1.7" stroke-linecap="round" opacity="0.75"/><path d="M 50 24 Q 52 29 53 33" stroke="#a4aaad" stroke-width="1.7" stroke-linecap="round" opacity="0.75"/></g></g><text x="89" y="765" fill="#d8e6e1" font-family="DejaVu Sans" font-size="13" font-weight="bold">BEFORE</text><text x="312.0" y="765" fill="#f6d06b" font-family="DejaVu Sans" font-size="13" font-weight="bold">AFTER</text><text x="75" y="866" text-anchor="start" fill="#cfe3dd" font-family="DejaVu Sans" font-size="12.5" font-weight="normal"><tspan x="75" dy="0">Create a premium professional</tspan><tspan x="75" dy="16.9">portrait with modern executive</tspan><tspan x="75" dy="16.9">clothing, soft studio lighting</tspan><tspan x="75" dy="16.9">and exact facial identity.</tspan></text><g filter="url(#shadow)"><rect x="555" y="700" width="470" height="238" rx="28" fill="url(#glass)" stroke="#f6d06b" stroke-opacity="0.35"/></g><text x="575" y="734" text-anchor="start" fill="white" font-family="DejaVu Sans" font-size="18" font-weight="bold"><tspan x="575" dy="0">Cinematic</tspan></text><rect x="573" y="746" width="211.0" height="96" rx="18" fill="#0c1916"/><rect x="796.0" y="746" width="211.0" height="96" rx="18" fill="#0c1916"/><rect x="573" y="746" width="211.0" height="96" rx="16" fill="url(#panelBefore)"/><rect x="581" y="754" width="195.0" height="49.9" rx="12" fill="#dff7ff" opacity="0.08"/><rect x="583" y="811.3" width="191.0" height="17.3" rx="10" fill="#0a1413" opacity="0.65"/><g transform="translate(611.0,757.5) scale(1.350,0.608)"><g><path d="M 28 74 Q 50 64 72 74 L 80 118 L 20 118 Z" fill="#0b0f14"/><path d="M 40 74 L 50 86 L 60 74 L 56 108 L 44 108 Z" fill="#d8dde4"/><path d="M 50 83 L 54 92 L 50 108 L 46 92 Z" fill="#19335b"/><path d="M 24 86 Q 22 98 22 112" stroke="#0b0f14" stroke-width="9" fill="none" stroke-linecap="round"/><path d="M 76 86 Q 78 97 78 110" stroke="#0b0f14" stroke-width="9" fill="none" stroke-linecap="round"/><ellipse cx="50" cy="40" rx="15" ry="18" fill="#d4a087"/><path d="M 35 24 Q 42 8 51 14 Q 58 5 66 22 L 60 34 Q 50 30 40 34 Z" fill="#26201f"/><path d="M 39 45 Q 50 68 61 45 Q 57 68 50 70 Q 43 68 39 45 Z" fill="#251e1c"/><path d="M 41 36 L 46 35 M 54 35 L 59 36" stroke="#1c1717" stroke-width="1.8" stroke-linecap="round"/><ellipse cx="44" cy="41" rx="2.3" ry="1.8" fill="#161414"/><ellipse cx="56" cy="41" rx="2.3" ry="1.8" fill="#161414"/><path d="M 43 56 Q 50 57 57 56" stroke="#6f4d41" stroke-width="1.6" fill="none" stroke-linecap="round"/><path d="M 50 42 Q 48 47 50 49" stroke="#8b6752" stroke-width="1.2" fill="none" stroke-linecap="round"/><path d="M 38 24 Q 40 29 41 33" stroke="#a4aaad" stroke-width="1.7" stroke-linecap="round" opacity="0.75"/><path d="M 44 24 Q 46 29 47 33" stroke="#a4aaad" stroke-width="1.7" stroke-linecap="round" opacity="0.75"/><path d="M 50 24 Q 52 29 53 33" stroke="#a4aaad" stroke-width="1.7" stroke-linecap="round" opacity="0.75"/></g></g><rect x="796.0" y="746" width="211.0" height="96" rx="16" fill="url(#panelAfter)"/><rect x="804.0" y="754" width="195.0" height="49.9" rx="12" fill="#dff7ff" opacity="0.14"/><rect x="806.0" y="811.3" width="191.0" height="17.3" rx="10" fill="#0a1413" opacity="0.65"/><g transform="translate(834.0,757.5) scale(1.350,0.608)"><g><path d="M 28 74 Q 50 64 72 74 L 80 118 L 20 118 Z" fill="#0b0f14"/><path d="M 40 74 L 50 86 L 60 74 L 56 108 L 44 108 Z" fill="#d8dde4"/><path d="M 50 83 L 54 92 L 50 108 L 46 92 Z" fill="#19335b"/><path d="M 24 86 Q 22 98 22 112" stroke="#0b0f14" stroke-width="9" fill="none" stroke-linecap="round"/><path d="M 76 86 Q 78 97 78 110" stroke="#0b0f14" stroke-width="9" fill="none" stroke-linecap="round"/><ellipse cx="50" cy="40" rx="15" ry="18" fill="#d4a087"/><path d="M 35 24 Q 42 8 51 14 Q 58 5 66 22 L 60 34 Q 50 30 40 34 Z" fill="#26201f"/><path d="M 39 45 Q 50 68 61 45 Q 57 68 50 70 Q 43 68 39 45 Z" fill="#251e1c"/><path d="M 41 36 L 46 35 M 54 35 L 59 36" stroke="#1c1717" stroke-width="1.8" stroke-linecap="round"/><ellipse cx="44" cy="41" rx="2.3" ry="1.8" fill="#161414"/><ellipse cx="56" cy="41" rx="2.3" ry="1.8" fill="#161414"/><path d="M 43 56 Q 50 57 57 56" stroke="#6f4d41" stroke-width="1.6" fill="none" stroke-linecap="round"/><path d="M 50 42 Q 48 47 50 49" stroke="#8b6752" stroke-width="1.2" fill="none" stroke-linecap="round"/><path d="M 38 24 Q 40 29 41 33" stroke="#a4aaad" stroke-width="1.7" stroke-linecap="round" opacity="0.75"/><path d="M 44 24 Q 46 29 47 33" stroke="#a4aaad" stroke-width="1.7" stroke-linecap="round" opacity="0.75"/><path d="M 50 24 Q 52 29 53 33" stroke="#a4aaad" stroke-width="1.7" stroke-linecap="round" opacity="0.75"/></g></g><text x="589" y="765" fill="#d8e6e1" font-family="DejaVu Sans" font-size="13" font-weight="bold">BEFORE</text><text x="812.0" y="765" fill="#f6d06b" font-family="DejaVu Sans" font-size="13" font-weight="bold">AFTER</text><text x="575" y="866" text-anchor="start" fill="#cfe3dd" font-family="DejaVu Sans" font-size="12.5" font-weight="normal"><tspan x="575" dy="0">Create a cinematic personal</tspan><tspan x="575" dy="16.9">portrait with dramatic lighting,</tspan><tspan x="575" dy="16.9">subtle rim light and exact</tspan><tspan x="575" dy="16.9">identity.</tspan></text><g filter="url(#shadow)"><rect x="55" y="970" width="470" height="238" rx="28" fill="url(#glass)" stroke="#f6d06b" stroke-opacity="0.35"/></g><text x="75" y="1004" text-anchor="start" fill="white" font-family="DejaVu Sans" font-size="18" font-weight="bold"><tspan x="75" dy="0">Luxury</tspan></text><rect x="73" y="1016" width="211.0" height="96" rx="18" fill="#0c1916"/><rect x="296.0" y="1016" width="211.0" height="96" rx="18" fill="#0c1916"/><rect x="73" y="1016" width="211.0" height="96" rx="16" fill="url(#panelBefore)"/><rect x="81" y="1024" width="195.0" height="49.9" rx="12" fill="#dff7ff" opacity="0.08"/><rect x="83" y="1081.3" width="191.0" height="17.3" rx="10" fill="#0a1413" opacity="0.65"/><g transform="translate(111.0,1027.5) scale(1.350,0.608)"><g><path d="M 28 74 Q 50 64 72 74 L 80 118 L 20 118 Z" fill="#0b0f14"/><path d="M 40 74 L 50 86 L 60 74 L 56 108 L 44 108 Z" fill="#d8dde4"/><path d="M 50 83 L 54 92 L 50 108 L 46 92 Z" fill="#19335b"/><path d="M 24 86 Q 22 98 22 112" stroke="#0b0f14" stroke-width="9" fill="none" stroke-linecap="round"/><path d="M 76 86 Q 78 97 78 110" stroke="#0b0f14" stroke-width="9" fill="none" stroke-linecap="round"/><ellipse cx="50" cy="40" rx="15" ry="18" fill="#d4a087"/><path d="M 34 24 Q 50 4 66 24 L 62 38 Q 50 34 38 38 Z" fill="#26201f"/><path d="M 39 45 Q 50 68 61 45 Q 57 68 50 70 Q 43 68 39 45 Z" fill="#251e1c"/><path d="M 41 36 L 46 35 M 54 35 L 59 36" stroke="#1c1717" stroke-width="1.8" stroke-linecap="round"/><ellipse cx="44" cy="41" rx="2.3" ry="1.8" fill="#161414"/><ellipse cx="56" cy="41" rx="2.3" ry="1.8" fill="#161414"/><path d="M 43 56 Q 50 57 57 56" stroke="#6f4d41" stroke-width="1.6" fill="none" stroke-linecap="round"/><path d="M 50 42 Q 48 47 50 49" stroke="#8b6752" stroke-width="1.2" fill="none" stroke-linecap="round"/><path d="M 38 24 Q 40 29 41 33" stroke="#a4aaad" stroke-width="1.7" stroke-linecap="round" opacity="0.75"/><path d="M 44 24 Q 46 29 47 33" stroke="#a4aaad" stroke-width="1.7" stroke-linecap="round" opacity="0.75"/><path d="M 50 24 Q 52 29 53 33" stroke="#a4aaad" stroke-width="1.7" stroke-linecap="round" opacity="0.75"/></g></g><rect x="296.0" y="1016" width="211.0" height="96" rx="16" fill="url(#panelAfter)"/><rect x="304.0" y="1024" width="195.0" height="49.9" rx="12" fill="#dff7ff" opacity="0.14"/><rect x="306.0" y="1081.3" width="191.0" height="17.3" rx="10" fill="#0a1413" opacity="0.65"/><g transform="translate(334.0,1027.5) scale(1.350,0.608)"><g><path d="M 28 74 Q 50 64 72 74 L 80 118 L 20 118 Z" fill="#1a1218"/><path d="M 40 74 L 50 86 L 60 74 L 56 108 L 44 108 Z" fill="#efe1c6"/><path d="M 50 83 L 54 92 L 50 108 L 46 92 Z" fill="#b98424"/><path d="M 24 86 Q 22 98 22 112" stroke="#1a1218" stroke-width="9" fill="none" stroke-linecap="round"/><path d="M 76 86 Q 78 97 78 110" stroke="#1a1218" stroke-width="9" fill="none" stroke-linecap="round"/><ellipse cx="50" cy="40" rx="15" ry="18" fill="#d4a087"/><path d="M 34 24 Q 50 4 66 24 L 62 38 Q 50 34 38 38 Z" fill="#26201f"/><path d="M 39 45 Q 50 68 61 45 Q 57 68 50 70 Q 43 68 39 45 Z" fill="#251e1c"/><path d="M 41 36 L 46 35 M 54 35 L 59 36" stroke="#1c1717" stroke-width="1.8" stroke-linecap="round"/><ellipse cx="44" cy="41" rx="2.3" ry="1.8" fill="#161414"/><ellipse cx="56" cy="41" rx="2.3" ry="1.8" fill="#161414"/><path d="M 43 56 Q 50 57 57 56" stroke="#6f4d41" stroke-width="1.6" fill="none" stroke-linecap="round"/><path d="M 50 42 Q 48 47 50 49" stroke="#8b6752" stroke-width="1.2" fill="none" stroke-linecap="round"/><path d="M 38 24 Q 40 29 41 33" stroke="#a4aaad" stroke-width="1.7" stroke-linecap="round" opacity="0.75"/><path d="M 44 24 Q 46 29 47 33" stroke="#a4aaad" stroke-width="1.7" stroke-linecap="round" opacity="0.75"/><path d="M 50 24 Q 52 29 53 33" stroke="#a4aaad" stroke-width="1.7" stroke-linecap="round" opacity="0.75"/></g></g><text x="89" y="1035" fill="#d8e6e1" font-family="DejaVu Sans" font-size="13" font-weight="bold">BEFORE</text><text x="312.0" y="1035" fill="#f6d06b" font-family="DejaVu Sans" font-size="13" font-weight="bold">AFTER</text><text x="75" y="1136" text-anchor="start" fill="#cfe3dd" font-family="DejaVu Sans" font-size="12.5" font-weight="normal"><tspan x="75" dy="0">Create a luxury editorial</tspan><tspan x="75" dy="16.9">portrait with premium styling,</tspan><tspan x="75" dy="16.9">elegant lighting and preserved</tspan><tspan x="75" dy="16.9">identity.</tspan></text><g filter="url(#shadow)"><rect x="555" y="970" width="470" height="238" rx="28" fill="url(#glass)" stroke="#f6d06b" stroke-opacity="0.35"/></g><text x="575" y="1004" text-anchor="start" fill="white" font-family="DejaVu Sans" font-size="18" font-weight="bold"><tspan x="575" dy="0">Social Media</tspan></text><rect x="573" y="1016" width="211.0" height="96" rx="18" fill="#0c1916"/><rect x="796.0" y="1016" width="211.0" height="96" rx="18" fill="#0c1916"/><rect x="573" y="1016" width="211.0" height="96" rx="16" fill="url(#panelBefore)"/><rect x="581" y="1024" width="195.0" height="49.9" rx="12" fill="#dff7ff" opacity="0.08"/><rect x="583" y="1081.3" width="191.0" height="17.3" rx="10" fill="#0a1413" opacity="0.65"/><g transform="translate(611.0,1027.5) scale(1.350,0.608)"><g><path d="M 28 74 Q 50 64 72 74 L 80 118 L 20 118 Z" fill="#0b0f14"/><path d="M 40 74 L 50 86 L 60 74 L 56 108 L 44 108 Z" fill="#d8dde4"/><path d="M 50 83 L 54 92 L 50 108 L 46 92 Z" fill="#19335b"/><path d="M 24 86 Q 22 98 22 112" stroke="#0b0f14" stroke-width="9" fill="none" stroke-linecap="round"/><path d="M 76 86 Q 78 97 78 110" stroke="#0b0f14" stroke-width="9" fill="none" stroke-linecap="round"/><ellipse cx="50" cy="40" rx="15" ry="18" fill="#d4a087"/><path d="M 35 23 Q 47 8 65 20 L 61 33 Q 50 28 40 34 Z" fill="#26201f"/><path d="M 39 45 Q 50 68 61 45 Q 57 68 50 70 Q 43 68 39 45 Z" fill="#251e1c"/><path d="M 41 36 L 46 35 M 54 35 L 59 36" stroke="#1c1717" stroke-width="1.8" stroke-linecap="round"/><ellipse cx="44" cy="41" rx="2.3" ry="1.8" fill="#161414"/><ellipse cx="56" cy="41" rx="2.3" ry="1.8" fill="#161414"/><path d="M 43 56 Q 50 57 57 56" stroke="#6f4d41" stroke-width="1.6" fill="none" stroke-linecap="round"/><path d="M 50 42 Q 48 47 50 49" stroke="#8b6752" stroke-width="1.2" fill="none" stroke-linecap="round"/><path d="M 38 24 Q 40 29 41 33" stroke="#a4aaad" stroke-width="1.7" stroke-linecap="round" opacity="0.75"/><path d="M 44 24 Q 46 29 47 33" stroke="#a4aaad" stroke-width="1.7" stroke-linecap="round" opacity="0.75"/><path d="M 50 24 Q 52 29 53 33" stroke="#a4aaad" stroke-width="1.7" stroke-linecap="round" opacity="0.75"/></g></g><rect x="796.0" y="1016" width="211.0" height="96" rx="16" fill="url(#panelAfter)"/><rect x="804.0" y="1024" width="195.0" height="49.9" rx="12" fill="#dff7ff" opacity="0.14"/><rect x="806.0" y="1081.3" width="191.0" height="17.3" rx="10" fill="#0a1413" opacity="0.65"/><g transform="translate(834.0,1027.5) scale(1.350,0.608)"><g><path d="M 28 74 Q 50 64 72 74 L 80 118 L 20 118 Z" fill="#546655"/><path d="M 40 74 L 50 86 L 60 74 L 56 108 L 44 108 Z" fill="#efece6"/><path d="M 50 83 L 54 92 L 50 108 L 46 92 Z" fill="#bfa25a"/><path d="M 24 86 Q 22 98 22 112" stroke="#546655" stroke-width="9" fill="none" stroke-linecap="round"/><path d="M 76 86 Q 78 97 78 110" stroke="#546655" stroke-width="9" fill="none" stroke-linecap="round"/><ellipse cx="50" cy="40" rx="15" ry="18" fill="#d4a087"/><path d="M 35 23 Q 47 8 65 20 L 61 33 Q 50 28 40 34 Z" fill="#26201f"/><path d="M 39 45 Q 50 68 61 45 Q 57 68 50 70 Q 43 68 39 45 Z" fill="#251e1c"/><path d="M 41 36 L 46 35 M 54 35 L 59 36" stroke="#1c1717" stroke-width="1.8" stroke-linecap="round"/><ellipse cx="44" cy="41" rx="2.3" ry="1.8" fill="#161414"/><ellipse cx="56" cy="41" rx="2.3" ry="1.8" fill="#161414"/><path d="M 43 56 Q 50 57 57 56" stroke="#6f4d41" stroke-width="1.6" fill="none" stroke-linecap="round"/><path d="M 50 42 Q 48 47 50 49" stroke="#8b6752" stroke-width="1.2" fill="none" stroke-linecap="round"/><path d="M 38 24 Q 40 29 41 33" stroke="#a4aaad" stroke-width="1.7" stroke-linecap="round" opacity="0.75"/><path d="M 44 24 Q 46 29 47 33" stroke="#a4aaad" stroke-width="1.7" stroke-linecap="round" opacity="0.75"/><path d="M 50 24 Q 52 29 53 33" stroke="#a4aaad" stroke-width="1.7" stroke-linecap="round" opacity="0.75"/></g></g><text x="589" y="1035" fill="#d8e6e1" font-family="DejaVu Sans" font-size="13" font-weight="bold">BEFORE</text><text x="812.0" y="1035" fill="#f6d06b" font-family="DejaVu Sans" font-size="13" font-weight="bold">AFTER</text><text x="575" y="1136" text-anchor="start" fill="#cfe3dd" font-family="DejaVu Sans" font-size="12.5" font-weight="normal"><tspan x="575" dy="0">Create a polished social-media</tspan><tspan x="575" dy="16.9">personal brand portrait with</tspan><tspan x="575" dy="16.9">clean framing, modern lighting</tspan><tspan x="575" dy="16.9">and exact identity.</tspan></text><g filter="url(#shadow)"><rect x="55" y="1240" width="470" height="238" rx="28" fill="url(#glass)" stroke="#f6d06b" stroke-opacity="0.35"/></g><text x="75" y="1274" text-anchor="start" fill="white" font-family="DejaVu Sans" font-size="18" font-weight="bold"><tspan x="75" dy="0">Creative</tspan></text><rect x="73" y="1286" width="211.0" height="96" rx="18" fill="#0c1916"/><rect x="296.0" y="1286" width="211.0" height="96" rx="18" fill="#0c1916"/><rect x="73" y="1286" width="211.0" height="96" rx="16" fill="url(#panelBefore)"/><rect x="81" y="1294" width="195.0" height="49.9" rx="12" fill="#dff7ff" opacity="0.08"/><rect x="83" y="1351.3" width="191.0" height="17.3" rx="10" fill="#0a1413" opacity="0.65"/><g transform="translate(111.0,1297.5) scale(1.350,0.608)"><g><path d="M 28 74 Q 50 64 72 74 L 80 118 L 20 118 Z" fill="#0b0f14"/><path d="M 40 74 L 50 86 L 60 74 L 56 108 L 44 108 Z" fill="#d8dde4"/><path d="M 50 83 L 54 92 L 50 108 L 46 92 Z" fill="#19335b"/><path d="M 24 86 Q 22 98 22 112" stroke="#0b0f14" stroke-width="9" fill="none" stroke-linecap="round"/><path d="M 76 86 Q 78 97 78 110" stroke="#0b0f14" stroke-width="9" fill="none" stroke-linecap="round"/><ellipse cx="50" cy="40" rx="15" ry="18" fill="#d4a087"/><path d="M 34 24 Q 50 6 66 24 L 58 31 Q 50 24 42 31 Z" fill="#26201f"/><path d="M 39 45 Q 50 68 61 45 Q 57 68 50 70 Q 43 68 39 45 Z" fill="#251e1c"/><path d="M 41 36 L 46 35 M 54 35 L 59 36" stroke="#1c1717" stroke-width="1.8" stroke-linecap="round"/><ellipse cx="44" cy="41" rx="2.3" ry="1.8" fill="#161414"/><ellipse cx="56" cy="41" rx="2.3" ry="1.8" fill="#161414"/><path d="M 43 56 Q 50 57 57 56" stroke="#6f4d41" stroke-width="1.6" fill="none" stroke-linecap="round"/><path d="M 50 42 Q 48 47 50 49" stroke="#8b6752" stroke-width="1.2" fill="none" stroke-linecap="round"/><path d="M 38 24 Q 40 29 41 33" stroke="#a4aaad" stroke-width="1.7" stroke-linecap="round" opacity="0.75"/><path d="M 44 24 Q 46 29 47 33" stroke="#a4aaad" stroke-width="1.7" stroke-linecap="round" opacity="0.75"/><path d="M 50 24 Q 52 29 53 33" stroke="#a4aaad" stroke-width="1.7" stroke-linecap="round" opacity="0.75"/></g></g><rect x="296.0" y="1286" width="211.0" height="96" rx="16" fill="url(#panelAfter)"/><rect x="304.0" y="1294" width="195.0" height="49.9" rx="12" fill="#dff7ff" opacity="0.14"/><rect x="306.0" y="1351.3" width="191.0" height="17.3" rx="10" fill="#0a1413" opacity="0.65"/><g transform="translate(334.0,1297.5) scale(1.350,0.608)"><g><path d="M 28 74 Q 50 64 72 74 L 80 118 L 20 118 Z" fill="#546655"/><path d="M 40 74 L 50 86 L 60 74 L 56 108 L 44 108 Z" fill="#efece6"/><path d="M 50 83 L 54 92 L 50 108 L 46 92 Z" fill="#bfa25a"/><path d="M 24 86 Q 22 98 22 112" stroke="#546655" stroke-width="9" fill="none" stroke-linecap="round"/><path d="M 76 86 Q 78 97 78 110" stroke="#546655" stroke-width="9" fill="none" stroke-linecap="round"/><ellipse cx="50" cy="40" rx="15" ry="18" fill="#d4a087"/><path d="M 34 24 Q 50 6 66 24 L 58 31 Q 50 24 42 31 Z" fill="#26201f"/><path d="M 39 45 Q 50 68 61 45 Q 57 68 50 70 Q 43 68 39 45 Z" fill="#251e1c"/><path d="M 41 36 L 46 35 M 54 35 L 59 36" stroke="#1c1717" stroke-width="1.8" stroke-linecap="round"/><ellipse cx="44" cy="41" rx="2.3" ry="1.8" fill="#161414"/><ellipse cx="56" cy="41" rx="2.3" ry="1.8" fill="#161414"/><path d="M 43 56 Q 50 57 57 56" stroke="#6f4d41" stroke-width="1.6" fill="none" stroke-linecap="round"/><path d="M 50 42 Q 48 47 50 49" stroke="#8b6752" stroke-width="1.2" fill="none" stroke-linecap="round"/><path d="M 38 24 Q 40 29 41 33" stroke="#a4aaad" stroke-width="1.7" stroke-linecap="round" opacity="0.75"/><path d="M 44 24 Q 46 29 47 33" stroke="#a4aaad" stroke-width="1.7" stroke-linecap="round" opacity="0.75"/><path d="M 50 24 Q 52 29 53 33" stroke="#a4aaad" stroke-width="1.7" stroke-linecap="round" opacity="0.75"/><rect x="12" y="16" width="76" height="88" rx="12" fill="none" stroke="#7d7cff" stroke-opacity="0.25"/></g></g><text x="89" y="1305" fill="#d8e6e1" font-family="DejaVu Sans" font-size="13" font-weight="bold">BEFORE</text><text x="312.0" y="1305" fill="#f6d06b" font-family="DejaVu Sans" font-size="13" font-weight="bold">AFTER</text><text x="75" y="1406" text-anchor="start" fill="#cfe3dd" font-family="DejaVu Sans" font-size="12.5" font-weight="normal"><tspan x="75" dy="0">Create a creative stylized</tspan><tspan x="75" dy="16.9">portrait with artistic</tspan><tspan x="75" dy="16.9">background, controlled color and</tspan><tspan x="75" dy="16.9">exact identity.</tspan></text><g filter="url(#shadow)"><rect x="555" y="1240" width="470" height="238" rx="28" fill="url(#glass)" stroke="#f6d06b" stroke-opacity="0.35"/></g><text x="575" y="1274" text-anchor="start" fill="white" font-family="DejaVu Sans" font-size="17" font-weight="bold"><tspan x="575" dy="0">Complete</tspan><tspan x="575" dy="23.0">Transformation</tspan></text><rect x="573" y="1286" width="211.0" height="78" rx="18" fill="#0c1916"/><rect x="796.0" y="1286" width="211.0" height="78" rx="18" fill="#0c1916"/><rect x="573" y="1286" width="211.0" height="78" rx="16" fill="url(#panelBefore)"/><rect x="581" y="1294" width="195.0" height="40.6" rx="12" fill="#dff7ff" opacity="0.08"/><rect x="583" y="1339.0" width="191.0" height="14.0" rx="10" fill="#0a1413" opacity="0.65"/><g transform="translate(611.0,1295.4) scale(1.350,0.494)"><g><path d="M 28 74 Q 50 64 72 74 L 80 118 L 20 118 Z" fill="#0b0f14"/><path d="M 40 74 L 50 86 L 60 74 L 56 108 L 44 108 Z" fill="#d8dde4"/><path d="M 50 83 L 54 92 L 50 108 L 46 92 Z" fill="#19335b"/><path d="M 24 86 Q 22 98 22 112" stroke="#0b0f14" stroke-width="9" fill="none" stroke-linecap="round"/><path d="M 76 86 Q 78 97 78 110" stroke="#0b0f14" stroke-width="9" fill="none" stroke-linecap="round"/><ellipse cx="50" cy="40" rx="15" ry="18" fill="#d4a087"/><path d="M 36 23 Q 50 5 64 23 L 60 34 Q 50 29 40 34 Z" fill="#26201f"/><path d="M 39 45 Q 50 68 61 45 Q 57 68 50 70 Q 43 68 39 45 Z" fill="#251e1c"/><path d="M 41 36 L 46 35 M 54 35 L 59 36" stroke="#1c1717" stroke-width="1.8" stroke-linecap="round"/><ellipse cx="44" cy="41" rx="2.3" ry="1.8" fill="#161414"/><ellipse cx="56" cy="41" rx="2.3" ry="1.8" fill="#161414"/><path d="M 43 56 Q 50 57 57 56" stroke="#6f4d41" stroke-width="1.6" fill="none" stroke-linecap="round"/><path d="M 50 42 Q 48 47 50 49" stroke="#8b6752" stroke-width="1.2" fill="none" stroke-linecap="round"/><path d="M 38 24 Q 40 29 41 33" stroke="#a4aaad" stroke-width="1.7" stroke-linecap="round" opacity="0.75"/><path d="M 44 24 Q 46 29 47 33" stroke="#a4aaad" stroke-width="1.7" stroke-linecap="round" opacity="0.75"/><path d="M 50 24 Q 52 29 53 33" stroke="#a4aaad" stroke-width="1.7" stroke-linecap="round" opacity="0.75"/></g></g><rect x="796.0" y="1286" width="211.0" height="78" rx="16" fill="url(#panelAfter)"/><rect x="804.0" y="1294" width="195.0" height="40.6" rx="12" fill="#dff7ff" opacity="0.14"/><rect x="806.0" y="1339.0" width="191.0" height="14.0" rx="10" fill="#0a1413" opacity="0.65"/><g transform="translate(834.0,1295.4) scale(1.350,0.494)"><g transform="translate(-3,0) scale(0.96,1)"><path d="M 28 74 Q 50 64 72 74 L 80 118 L 20 118 Z" fill="#161f30"/><path d="M 40 74 L 50 86 L 60 74 L 56 108 L 44 108 Z" fill="#d8dde5"/><path d="M 50 83 L 54 92 L 50 108 L 46 92 Z" fill="#10294e"/><path d="M 24 86 Q 22 98 22 112" stroke="#161f30" stroke-width="9" fill="none" stroke-linecap="round"/><path d="M 76 86 Q 78 97 78 110" stroke="#161f30" stroke-width="9" fill="none" stroke-linecap="round"/><ellipse cx="50" cy="40" rx="15" ry="18" fill="#d4a087"/><path d="M 36 23 Q 50 5 64 23 L 60 34 Q 50 29 40 34 Z" fill="#26201f"/><path d="M 39 45 Q 50 68 61 45 Q 57 68 50 70 Q 43 68 39 45 Z" fill="#251e1c"/><path d="M 41 36 L 46 35 M 54 35 L 59 36" stroke="#1c1717" stroke-width="1.8" stroke-linecap="round"/><ellipse cx="44" cy="41" rx="2.3" ry="1.8" fill="#161414"/><ellipse cx="56" cy="41" rx="2.3" ry="1.8" fill="#161414"/><path d="M 43 56 Q 50 57 57 56" stroke="#6f4d41" stroke-width="1.6" fill="none" stroke-linecap="round"/><path d="M 50 42 Q 48 47 50 49" stroke="#8b6752" stroke-width="1.2" fill="none" stroke-linecap="round"/><path d="M 38 24 Q 40 29 41 33" stroke="#a4aaad" stroke-width="1.7" stroke-linecap="round" opacity="0.75"/><path d="M 44 24 Q 46 29 47 33" stroke="#a4aaad" stroke-width="1.7" stroke-linecap="round" opacity="0.75"/><path d="M 50 24 Q 52 29 53 33" stroke="#a4aaad" stroke-width="1.7" stroke-linecap="round" opacity="0.75"/></g></g><text x="589" y="1305" fill="#d8e6e1" font-family="DejaVu Sans" font-size="13" font-weight="bold">BEFORE</text><text x="812.0" y="1305" fill="#f6d06b" font-family="DejaVu Sans" font-size="13" font-weight="bold">AFTER</text><text x="575" y="1388" text-anchor="start" fill="#cfe3dd" font-family="DejaVu Sans" font-size="11.5" font-weight="normal"><tspan x="575" dy="0">Create a premium cinematic personal-brand portrait:</tspan><tspan x="575" dy="15.5">modern executive clothing, confident pose,</tspan><tspan x="575" dy="15.5">three-quarter camera angle, luxury studio</tspan><tspan x="575" dy="15.5">environment, soft key light, subtle rim light,</tspan><tspan x="575" dy="15.5">cinematic color grade, realistic skin texture and</tspan><tspan x="575" dy="15.5">exact facial identity.</tspan></text><rect x="70" y="1510" width="940" height="126" rx="32" fill="#10241f" stroke="url(#gold)" stroke-width="2.5"/><text x="540" y="1544" text-anchor="middle" fill="#f6d06b" font-family="DejaVu Sans" font-size="20" font-weight="bold">نکته حرفه‌ای</text><text x="540" y="1580" text-anchor="middle" fill="#f4ead2" font-family="DejaVu Sans" font-size="20" font-weight="bold"><tspan x="540" dy="0">ادیت نهایی را ماژول‌بندی کن: سوژه، لباس، ژست، محیط،</tspan><tspan x="540" dy="27.0">نور، استایل، هویت.</tspan></text><rect x="140" y="1672" width="800" height="82" rx="28" fill="#08110f" stroke="#f6d06b" stroke-width="2"/><text x="540" y="1706" text-anchor="middle" fill="#ffffff" font-family="DejaVu Sans" font-size="32" font-weight="bold">AI Editing</text><text x="540" y="1736" text-anchor="middle" fill="#f6d06b" font-family="DejaVu Sans" font-size="22">۳۰ تکنیک یاد گرفتی؛ حالا پرامپت خودت را بساز.</text><text x="540" y="1800" text-anchor="middle" fill="#f6d06b" font-family="DejaVu Sans" font-size="36" font-weight="bold">تغییر کنترل‌شده؛ نه تغییر هویت.</text><text x="540" y="1838" text-anchor="middle" fill="#8aa099" font-family="DejaVu Sans" font-size="19">Premium Prompting • Before / After • Identity-Safe Editing</text></svg>